<svg id="svg" version="1.2" baseProfile="tiny-ps" xmlns="http://www.w3.org/2000/svg" xmlns:xlink="http://www.w3.org/1999/xlink" width="400" height="400" viewBox="0, 0, 400,400"><title>yebi</title><g id="svgg"><path id="path0" d="M111.800 68.165 C 107.620 68.663,103.210 69.356,102.000 69.705 C 100.790 70.054,99.006 70.548,98.036 70.802 C 96.253 71.270,91.600 75.166,91.600 76.192 C 91.600 76.451,91.135 77.807,90.566 79.207 L 89.532 81.753 90.623 86.176 C 91.223 88.609,92.138 91.613,92.657 92.850 C 93.176 94.088,93.600 95.402,93.600 95.771 C 93.600 96.140,94.523 99.088,95.651 102.321 C 96.779 105.554,98.105 109.370,98.596 110.800 C 99.088 112.230,100.397 115.504,101.506 118.075 C 102.616 120.646,103.720 123.667,103.960 124.788 C 104.201 125.909,104.744 127.506,105.168 128.337 C 105.592 129.168,106.233 130.985,106.594 132.375 C 106.954 133.765,107.494 135.284,107.795 135.751 C 108.095 136.218,108.464 137.320,108.615 138.200 C 108.766 139.080,109.472 141.150,110.184 142.800 C 112.203 147.478,113.839 151.615,114.532 153.800 C 115.145 155.733,117.291 161.712,118.552 165.000 C 118.889 165.880,119.173 166.927,119.182 167.326 C 119.192 167.725,119.650 169.035,120.200 170.237 C 120.750 171.440,121.202 172.643,121.204 172.912 C 121.206 173.180,121.676 174.390,122.247 175.600 C 122.819 176.810,123.709 178.970,124.225 180.400 C 124.742 181.830,125.713 184.530,126.383 186.400 C 127.054 188.270,127.869 190.273,128.195 190.851 C 128.521 191.429,128.992 192.869,129.242 194.051 C 129.493 195.233,129.977 196.740,130.319 197.400 C 130.661 198.060,131.252 199.680,131.631 201.000 C 132.011 202.320,133.303 205.830,134.503 208.800 C 136.698 214.233,138.293 218.745,139.445 222.783 C 139.788 223.983,140.388 225.603,140.778 226.383 C 141.168 227.162,141.612 228.610,141.764 229.600 C 141.917 230.590,142.457 232.120,142.964 233.000 C 143.471 233.880,143.999 235.067,144.136 235.639 C 144.272 236.210,145.018 237.729,145.792 239.015 C 146.566 240.301,147.200 241.527,147.200 241.739 C 147.200 241.951,147.650 242.714,148.200 243.435 C 151.917 248.309,151.319 254.718,146.536 261.287 C 138.520 272.294,133.398 275.521,120.000 278.004 C 107.554 280.309,107.186 281.091,107.234 305.118 L 107.268 322.200 108.334 325.400 L 109.400 328.600 111.600 329.336 C 120.499 332.314,145.595 331.373,153.329 327.772 C 154.468 327.242,155.737 326.806,156.150 326.804 C 157.057 326.799,162.565 324.083,164.908 322.484 C 165.838 321.849,167.320 320.881,168.200 320.332 C 169.080 319.784,170.541 318.869,171.446 318.298 C 172.351 317.727,173.893 316.482,174.871 315.530 C 175.850 314.579,178.477 312.063,180.711 309.940 C 185.010 305.852,187.576 302.964,191.431 297.871 C 192.734 296.150,194.302 294.080,194.917 293.271 C 195.531 292.462,196.251 291.615,196.517 291.390 C 197.048 290.939,198.005 289.305,199.604 286.115 C 200.178 284.968,200.952 283.695,201.322 283.286 C 201.693 282.877,202.743 281.115,203.657 279.371 C 204.571 277.627,205.794 275.480,206.374 274.600 C 207.945 272.218,211.935 263.877,212.594 261.600 C 212.753 261.050,213.291 259.880,213.790 259.000 C 214.290 258.120,214.833 256.950,214.997 256.400 C 215.162 255.850,216.342 253.232,217.620 250.583 C 218.898 247.934,220.076 245.234,220.238 244.583 C 220.400 243.932,221.043 242.320,221.666 241.000 C 222.289 239.680,222.800 238.330,222.801 238.000 C 222.802 237.670,223.342 236.320,224.000 235.000 C 224.658 233.680,225.198 232.055,225.198 231.389 C 225.199 230.723,225.830 228.863,226.600 227.256 C 227.370 225.649,228.002 224.124,228.004 223.867 C 228.006 223.610,228.476 222.410,229.048 221.200 C 229.621 219.990,230.342 217.944,230.651 216.653 C 230.960 215.362,231.563 213.814,231.991 213.212 C 232.420 212.611,232.961 211.266,233.194 210.225 C 233.428 209.183,233.945 207.672,234.343 206.866 C 234.741 206.060,235.299 204.325,235.582 203.012 C 235.865 201.699,236.333 200.259,236.621 199.812 C 236.909 199.365,237.498 197.650,237.928 196.000 C 238.359 194.350,239.700 190.632,240.907 187.739 C 242.114 184.845,243.330 181.526,243.609 180.363 C 243.888 179.200,244.432 177.698,244.819 177.025 C 245.206 176.351,245.652 175.170,245.809 174.400 C 245.967 173.630,246.338 172.528,246.633 171.950 C 246.927 171.373,247.516 169.663,247.940 168.150 C 248.364 166.638,249.091 164.455,249.555 163.300 C 250.020 162.145,250.782 160.255,251.249 159.100 C 251.715 157.945,252.591 155.546,253.194 153.769 C 253.797 151.992,254.571 150.102,254.913 149.569 C 255.255 149.036,255.748 147.790,256.009 146.800 C 256.270 145.810,256.763 144.460,257.105 143.800 C 257.446 143.140,258.035 141.430,258.412 140.000 C 258.789 138.570,259.470 136.500,259.925 135.400 C 260.381 134.300,261.020 132.590,261.346 131.600 C 262.729 127.398,264.700 122.109,265.326 120.920 C 265.697 120.216,266.000 119.388,266.000 119.079 C 266.000 118.771,266.450 117.673,267.000 116.638 C 267.550 115.604,268.292 113.462,268.649 111.879 C 269.006 110.295,269.521 108.550,269.795 108.000 C 270.069 107.450,270.521 106.010,270.801 104.800 C 271.080 103.590,271.623 101.970,272.008 101.200 C 272.393 100.430,272.929 98.720,273.200 97.400 C 273.471 96.080,274.020 94.355,274.421 93.566 C 277.438 87.625,277.155 77.938,273.847 73.880 C 270.219 69.429,267.397 68.622,254.000 68.200 C 235.891 67.631,226.845 68.852,222.672 72.432 C 218.999 75.582,215.482 80.247,214.785 82.893 C 214.537 83.832,214.079 85.000,213.765 85.489 C 213.452 85.978,212.940 87.473,212.628 88.812 C 212.316 90.150,211.870 91.475,211.636 91.756 C 211.403 92.037,210.775 93.692,210.240 95.434 C 208.658 100.588,207.384 104.071,206.300 106.207 C 205.740 107.310,205.064 109.019,204.799 110.004 C 204.534 110.990,203.990 112.435,203.592 113.216 C 203.193 113.998,202.745 115.349,202.596 116.219 C 202.447 117.088,201.981 118.289,201.560 118.888 C 201.139 119.486,200.537 121.199,200.222 122.693 C 199.908 124.188,199.191 126.399,198.629 127.606 C 198.067 128.812,197.492 130.430,197.351 131.200 C 197.211 131.970,196.938 132.800,196.746 133.044 C 196.553 133.287,196.060 134.457,195.649 135.644 C 195.238 136.830,194.361 138.880,193.702 140.200 C 193.042 141.520,192.287 143.500,192.025 144.600 C 191.763 145.700,191.288 147.001,190.970 147.492 C 190.652 147.982,190.113 149.587,189.772 151.058 C 189.431 152.530,188.917 154.198,188.629 154.767 C 188.342 155.335,187.896 156.700,187.638 157.800 C 186.060 164.517,181.896 163.777,179.756 156.400 C 179.405 155.190,178.888 153.834,178.607 153.387 C 178.326 152.940,177.720 151.320,177.260 149.787 C 176.433 147.030,175.076 142.736,174.420 140.800 C 174.091 139.829,173.742 138.954,170.993 132.200 C 170.277 130.440,169.470 128.190,169.201 127.200 C 168.931 126.210,168.393 124.770,168.004 124.000 C 167.616 123.230,167.167 121.970,167.006 121.200 C 166.846 120.430,166.304 118.969,165.801 117.954 C 165.299 116.939,164.758 115.499,164.599 114.754 C 164.441 114.009,163.791 111.886,163.156 110.036 C 162.520 108.186,162.000 106.414,162.000 106.098 C 162.000 105.782,161.650 105.031,161.221 104.430 C 160.458 103.358,159.610 101.071,155.799 89.800 C 151.461 76.972,148.090 72.552,141.200 70.659 C 139.990 70.326,138.010 69.776,136.800 69.437 C 135.590 69.097,131.900 68.543,128.600 68.206 C 125.300 67.868,121.880 67.518,121.000 67.426 C 120.120 67.335,115.980 67.668,111.800 68.165 " stroke="none" fill="#2c5edc" fill-rule="evenodd"></path><path id="path1" d="M267.600 258.416 C 265.446 258.720,259.323 261.073,258.045 262.087 C 257.690 262.369,256.566 263.019,255.546 263.531 C 245.642 268.505,238.185 281.811,238.303 294.296 C 238.566 322.085,264.838 338.963,290.600 327.894 C 298.143 324.653,307.175 315.552,308.557 309.800 C 308.715 309.140,309.278 307.761,309.808 306.735 C 312.636 301.258,312.605 288.786,309.747 282.526 C 309.226 281.385,308.800 280.318,308.800 280.156 C 308.800 279.582,305.480 273.200,305.182 273.200 C 305.015 273.200,304.514 272.581,304.068 271.825 C 303.621 271.068,301.961 269.403,300.378 268.125 C 298.795 266.846,296.905 265.260,296.178 264.600 C 290.582 259.520,278.419 256.888,267.600 258.416 " stroke="none" fill="#fcc222" fill-rule="evenodd"></path><path id="path2" d="M53.200 0.600 C 53.200 1.076,52.621 1.200,50.390 1.200 C 47.775 1.200,47.554 1.268,47.207 2.182 C 46.864 3.084,46.595 3.174,43.917 3.282 C 41.260 3.389,40.989 3.478,40.875 4.279 C 40.769 5.021,40.456 5.177,38.875 5.279 C 37.379 5.376,36.920 5.582,36.606 6.299 C 36.302 6.992,35.757 7.258,34.225 7.461 C 31.950 7.763,30.400 9.016,30.400 10.555 C 30.400 11.340,30.170 11.573,29.300 11.673 C 28.522 11.763,28.163 12.057,28.075 12.678 C 27.973 13.399,27.649 13.578,26.275 13.678 C 25.004 13.771,24.507 14.011,24.216 14.674 C 24.005 15.155,23.420 15.736,22.916 15.965 C 22.412 16.195,22.000 16.649,22.000 16.975 C 22.000 17.324,21.316 17.773,20.341 18.065 C 19.378 18.353,18.605 18.858,18.498 19.268 C 18.397 19.656,17.971 20.082,17.552 20.215 C 16.493 20.551,15.600 22.456,15.600 24.380 C 15.600 25.841,15.502 26.000,14.600 26.000 C 13.812 26.000,13.600 26.203,13.600 26.957 C 13.600 27.643,13.318 27.984,12.600 28.164 C 11.869 28.348,11.600 28.683,11.600 29.408 C 11.600 30.204,11.399 30.400,10.582 30.400 C 9.003 30.400,7.765 31.935,7.454 34.278 C 7.224 36.010,7.034 36.355,6.192 36.566 C 5.304 36.789,5.200 37.022,5.200 38.780 C 5.200 40.513,5.094 40.759,4.300 40.872 C 3.526 40.982,3.383 41.277,3.275 42.980 C 3.183 44.435,2.892 45.217,2.175 45.934 C 1.307 46.802,1.200 47.254,1.200 50.055 C 1.200 52.584,1.082 53.200,0.600 53.200 C 0.068 53.200,0.000 69.778,0.000 200.000 C 0.000 330.222,0.068 346.800,0.600 346.800 C 1.076 346.800,1.200 347.379,1.200 349.610 C 1.200 352.225,1.268 352.446,2.182 352.793 C 3.084 353.136,3.174 353.405,3.282 356.083 C 3.389 358.740,3.478 359.011,4.279 359.125 C 5.021 359.231,5.177 359.544,5.279 361.125 C 5.376 362.621,5.582 363.080,6.299 363.394 C 6.992 363.698,7.258 364.243,7.461 365.775 C 7.763 368.050,9.016 369.600,10.555 369.600 C 11.340 369.600,11.573 369.830,11.673 370.700 C 11.763 371.478,12.057 371.837,12.678 371.925 C 13.399 372.027,13.578 372.351,13.678 373.725 C 13.771 374.996,14.011 375.493,14.674 375.784 C 15.155 375.995,15.736 376.580,15.965 377.084 C 16.195 377.588,16.649 378.000,16.975 378.000 C 17.324 378.000,17.773 378.684,18.065 379.659 C 18.353 380.622,18.858 381.395,19.268 381.502 C 19.656 381.603,20.082 382.029,20.215 382.448 C 20.551 383.507,22.456 384.400,24.380 384.400 C 25.841 384.400,26.000 384.498,26.000 385.400 C 26.000 386.188,26.203 386.400,26.957 386.400 C 27.643 386.400,27.984 386.682,28.164 387.400 C 28.348 388.131,28.683 388.400,29.408 388.400 C 30.204 388.400,30.400 388.601,30.400 389.418 C 30.400 390.997,31.935 392.235,34.278 392.546 C 36.010 392.776,36.355 392.966,36.566 393.808 C 36.789 394.696,37.022 394.800,38.780 394.800 C 40.513 394.800,40.759 394.906,40.872 395.700 C 40.982 396.474,41.277 396.617,42.980 396.725 C 44.435 396.817,45.217 397.108,45.934 397.825 C 46.802 398.693,47.254 398.800,50.055 398.800 C 52.584 398.800,53.200 398.918,53.200 399.400 C 53.200 399.932,69.778 400.000,200.000 400.000 C 330.222 400.000,346.800 399.932,346.800 399.400 C 346.800 398.924,347.379 398.800,349.610 398.800 C 352.225 398.800,352.446 398.732,352.793 397.818 C 353.136 396.916,353.405 396.826,356.083 396.718 C 358.740 396.611,359.011 396.522,359.125 395.721 C 359.231 394.979,359.544 394.823,361.125 394.721 C 362.621 394.624,363.080 394.418,363.394 393.701 C 363.698 393.008,364.243 392.742,365.775 392.539 C 368.050 392.237,369.600 390.984,369.600 389.445 C 369.600 388.660,369.830 388.427,370.700 388.327 C 371.478 388.237,371.837 387.943,371.925 387.322 C 372.027 386.601,372.351 386.422,373.725 386.322 C 374.996 386.229,375.493 385.989,375.784 385.326 C 375.995 384.845,376.580 384.264,377.084 384.035 C 377.588 383.805,378.000 383.351,378.000 383.025 C 378.000 382.676,378.684 382.227,379.659 381.935 C 380.622 381.647,381.395 381.142,381.502 380.732 C 381.603 380.344,382.029 379.918,382.448 379.785 C 383.507 379.449,384.400 377.544,384.400 375.620 C 384.400 374.159,384.498 374.000,385.400 374.000 C 386.188 374.000,386.400 373.797,386.400 373.043 C 386.400 372.357,386.682 372.016,387.400 371.836 C 388.131 371.652,388.400 371.317,388.400 370.592 C 388.400 369.796,388.601 369.600,389.418 369.600 C 390.997 369.600,392.235 368.065,392.546 365.722 C 392.776 363.990,392.966 363.645,393.808 363.434 C 394.696 363.211,394.800 362.978,394.800 361.220 C 394.800 359.487,394.906 359.241,395.700 359.128 C 396.474 359.018,396.617 358.723,396.725 357.020 C 396.817 355.565,397.108 354.783,397.825 354.066 C 398.693 353.198,398.800 352.746,398.800 349.945 C 398.800 347.416,398.918 346.800,399.400 346.800 C 399.932 346.800,400.000 330.222,400.000 200.000 C 400.000 69.778,399.932 53.200,399.400 53.200 C 398.924 53.200,398.800 52.621,398.800 50.390 C 398.800 47.775,398.732 47.554,397.818 47.207 C 396.916 46.864,396.826 46.595,396.718 43.917 C 396.611 41.260,396.522 40.989,395.721 40.875 C 394.979 40.769,394.823 40.456,394.721 38.875 C 394.624 37.379,394.418 36.920,393.701 36.606 C 393.008 36.302,392.742 35.757,392.539 34.225 C 392.237 31.950,390.984 30.400,389.445 30.400 C 388.660 30.400,388.427 30.170,388.327 29.300 C 388.237 28.522,387.943 28.163,387.322 28.075 C 386.601 27.973,386.422 27.649,386.322 26.275 C 386.229 25.004,385.989 24.507,385.326 24.216 C 384.845 24.005,384.264 23.420,384.035 22.916 C 383.805 22.412,383.351 22.000,383.025 22.000 C 382.676 22.000,382.227 21.316,381.935 20.341 C 381.647 19.378,381.142 18.605,380.732 18.498 C 380.344 18.397,379.918 17.971,379.785 17.552 C 379.449 16.493,377.544 15.600,375.620 15.600 C 374.159 15.600,374.000 15.502,374.000 14.600 C 374.000 13.812,373.797 13.600,373.043 13.600 C 372.357 13.600,372.016 13.318,371.836 12.600 C 371.652 11.869,371.317 11.600,370.592 11.600 C 369.796 11.600,369.600 11.399,369.600 10.582 C 369.600 9.003,368.065 7.765,365.722 7.454 C 363.990 7.224,363.645 7.034,363.434 6.192 C 363.211 5.304,362.978 5.200,361.220 5.200 C 359.487 5.200,359.241 5.094,359.128 4.300 C 359.018 3.526,358.723 3.383,357.020 3.275 C 355.565 3.183,354.783 2.892,354.066 2.175 C 353.198 1.307,352.746 1.200,349.945 1.200 C 347.416 1.200,346.800 1.082,346.800 0.600 C 346.800 0.068,330.222 0.000,200.000 0.000 C 69.778 0.000,53.200 0.068,53.200 0.600 M128.600 68.206 C 131.900 68.543,135.590 69.097,136.800 69.437 C 138.010 69.776,139.990 70.326,141.200 70.659 C 148.090 72.552,151.461 76.972,155.799 89.800 C 159.610 101.071,160.458 103.358,161.221 104.430 C 161.650 105.031,162.000 105.782,162.000 106.098 C 162.000 106.414,162.520 108.186,163.156 110.036 C 163.791 111.886,164.441 114.009,164.599 114.754 C 164.758 115.499,165.299 116.939,165.801 117.954 C 166.304 118.969,166.846 120.430,167.006 121.200 C 167.167 121.970,167.616 123.230,168.004 124.000 C 168.393 124.770,168.931 126.210,169.201 127.200 C 169.470 128.190,170.277 130.440,170.993 132.200 C 173.742 138.954,174.091 139.829,174.420 140.800 C 175.076 142.736,176.433 147.030,177.260 149.787 C 177.720 151.320,178.326 152.940,178.607 153.387 C 178.888 153.834,179.405 155.190,179.756 156.400 C 181.896 163.777,186.060 164.517,187.638 157.800 C 187.896 156.700,188.342 155.335,188.629 154.767 C 188.917 154.198,189.431 152.530,189.772 151.058 C 190.113 149.587,190.652 147.982,190.970 147.492 C 191.288 147.001,191.763 145.700,192.025 144.600 C 192.287 143.500,193.042 141.520,193.702 140.200 C 194.361 138.880,195.238 136.830,195.649 135.644 C 196.060 134.457,196.553 133.287,196.746 133.044 C 196.938 132.800,197.211 131.970,197.351 131.200 C 197.492 130.430,198.067 128.812,198.629 127.606 C 199.191 126.399,199.908 124.188,200.222 122.693 C 200.537 121.199,201.139 119.486,201.560 118.888 C 201.981 118.289,202.447 117.088,202.596 116.219 C 202.745 115.349,203.193 113.998,203.592 113.216 C 203.990 112.435,204.534 110.990,204.799 110.004 C 205.064 109.019,205.740 107.310,206.300 106.207 C 207.384 104.071,208.658 100.588,210.240 95.434 C 210.775 93.692,211.403 92.037,211.636 91.756 C 211.870 91.475,212.316 90.150,212.628 88.812 C 212.940 87.473,213.452 85.978,213.765 85.489 C 214.079 85.000,214.537 83.832,214.785 82.893 C 215.482 80.247,218.999 75.582,222.672 72.432 C 226.845 68.852,235.891 67.631,254.000 68.200 C 267.397 68.622,270.219 69.429,273.847 73.880 C 277.155 77.938,277.438 87.625,274.421 93.566 C 274.020 94.355,273.471 96.080,273.200 97.400 C 272.929 98.720,272.393 100.430,272.008 101.200 C 271.623 101.970,271.080 103.590,270.801 104.800 C 270.521 106.010,270.069 107.450,269.795 108.000 C 269.521 108.550,269.006 110.295,268.649 111.879 C 268.292 113.462,267.550 115.604,267.000 116.638 C 266.450 117.673,266.000 118.771,266.000 119.079 C 266.000 119.388,265.697 120.216,265.326 120.920 C 264.700 122.109,262.729 127.398,261.346 131.600 C 261.020 132.590,260.381 134.300,259.925 135.400 C 259.470 136.500,258.789 138.570,258.412 140.000 C 258.035 141.430,257.446 143.140,257.105 143.800 C 256.763 144.460,256.270 145.810,256.009 146.800 C 255.748 147.790,255.255 149.036,254.913 149.569 C 254.571 150.102,253.797 151.992,253.194 153.769 C 252.591 155.546,251.715 157.945,251.249 159.100 C 250.782 160.255,250.020 162.145,249.555 163.300 C 249.091 164.455,248.364 166.638,247.940 168.150 C 247.516 169.663,246.927 171.373,246.633 171.950 C 246.338 172.528,245.967 173.630,245.809 174.400 C 245.652 175.170,245.206 176.351,244.819 177.025 C 244.432 177.698,243.888 179.200,243.609 180.363 C 243.330 181.526,242.114 184.845,240.907 187.739 C 239.700 190.632,238.359 194.350,237.928 196.000 C 237.498 197.650,236.909 199.365,236.621 199.812 C 236.333 200.259,235.865 201.699,235.582 203.012 C 235.299 204.325,234.741 206.060,234.343 206.866 C 233.945 207.672,233.428 209.183,233.194 210.225 C 232.961 211.266,232.420 212.611,231.991 213.212 C 231.563 213.814,230.960 215.362,230.651 216.653 C 230.342 217.944,229.621 219.990,229.048 221.200 C 228.476 222.410,228.006 223.610,228.004 223.867 C 228.002 224.124,227.370 225.649,226.600 227.256 C 225.830 228.863,225.199 230.723,225.198 231.389 C 225.198 232.055,224.658 233.680,224.000 235.000 C 223.342 236.320,222.802 237.670,222.801 238.000 C 222.800 238.330,222.289 239.680,221.666 241.000 C 221.043 242.320,220.400 243.932,220.238 244.583 C 220.076 245.234,218.898 247.934,217.620 250.583 C 216.342 253.232,215.162 255.850,214.997 256.400 C 214.833 256.950,214.290 258.120,213.790 259.000 C 213.291 259.880,212.753 261.050,212.594 261.600 C 211.935 263.877,207.945 272.218,206.374 274.600 C 205.794 275.480,204.571 277.627,203.657 279.371 C 202.743 281.115,201.693 282.877,201.322 283.286 C 200.952 283.695,200.178 284.968,199.604 286.115 C 198.005 289.305,197.048 290.939,196.517 291.390 C 196.251 291.615,195.531 292.462,194.917 293.271 C 194.302 294.080,192.734 296.150,191.431 297.871 C 187.576 302.964,185.010 305.852,180.711 309.940 C 178.477 312.063,175.850 314.579,174.871 315.530 C 173.893 316.482,172.351 317.727,171.446 318.298 C 170.541 318.869,169.080 319.784,168.200 320.332 C 167.320 320.881,165.838 321.849,164.908 322.484 C 162.565 324.083,157.057 326.799,156.150 326.804 C 155.737 326.806,154.468 327.242,153.329 327.772 C 145.595 331.373,120.499 332.314,111.600 329.336 L 109.400 328.600 108.334 325.400 L 107.268 322.200 107.234 305.118 C 107.186 281.091,107.554 280.309,120.000 278.004 C 133.398 275.521,138.520 272.294,146.536 261.287 C 151.319 254.718,151.917 248.309,148.200 243.435 C 147.650 242.714,147.200 241.951,147.200 241.739 C 147.200 241.527,146.566 240.301,145.792 239.015 C 145.018 237.729,144.272 236.210,144.136 235.639 C 143.999 235.067,143.471 233.880,142.964 233.000 C 142.457 232.120,141.917 230.590,141.764 229.600 C 141.612 228.610,141.168 227.162,140.778 226.383 C 140.388 225.603,139.788 223.983,139.445 222.783 C 138.293 218.745,136.698 214.233,134.503 208.800 C 133.303 205.830,132.011 202.320,131.631 201.000 C 131.252 199.680,130.661 198.060,130.319 197.400 C 129.977 196.740,129.493 195.233,129.242 194.051 C 128.992 192.869,128.521 191.429,128.195 190.851 C 127.869 190.273,127.054 188.270,126.383 186.400 C 125.713 184.530,124.742 181.830,124.225 180.400 C 123.709 178.970,122.819 176.810,122.247 175.600 C 121.676 174.390,121.206 173.180,121.204 172.912 C 121.202 172.643,120.750 171.440,120.200 170.237 C 119.650 169.035,119.192 167.725,119.182 167.326 C 119.173 166.927,118.889 165.880,118.552 165.000 C 117.291 161.712,115.145 155.733,114.532 153.800 C 113.839 151.615,112.203 147.478,110.184 142.800 C 109.472 141.150,108.766 139.080,108.615 138.200 C 108.464 137.320,108.095 136.218,107.795 135.751 C 107.494 135.284,106.954 133.765,106.594 132.375 C 106.233 130.985,105.592 129.168,105.168 128.337 C 104.744 127.506,104.201 125.909,103.960 124.788 C 103.720 123.667,102.616 120.646,101.506 118.075 C 100.397 115.504,99.088 112.230,98.596 110.800 C 98.105 109.370,96.779 105.554,95.651 102.321 C 94.523 99.088,93.600 96.140,93.600 95.771 C 93.600 95.402,93.176 94.088,92.657 92.850 C 92.138 91.613,91.223 88.609,90.623 86.176 L 89.532 81.753 90.566 79.207 C 91.135 77.807,91.600 76.451,91.600 76.192 C 91.600 75.166,96.253 71.270,98.036 70.802 C 99.006 70.548,100.790 70.054,102.000 69.705 C 104.802 68.896,118.886 67.207,121.000 67.426 C 121.880 67.518,125.300 67.868,128.600 68.206 M281.215 258.360 C 285.699 258.832,293.328 262.013,296.178 264.600 C 296.905 265.260,298.795 266.846,300.378 268.125 C 301.961 269.403,303.621 271.068,304.068 271.825 C 304.514 272.581,305.015 273.200,305.182 273.200 C 305.480 273.200,308.800 279.582,308.800 280.156 C 308.800 280.318,309.226 281.385,309.747 282.526 C 312.605 288.786,312.636 301.258,309.808 306.735 C 309.278 307.761,308.715 309.140,308.557 309.800 C 307.175 315.552,298.143 324.653,290.600 327.894 C 259.035 341.456,227.991 311.439,241.030 279.963 C 243.250 274.605,251.027 265.801,255.546 263.531 C 256.566 263.019,257.690 262.369,258.045 262.087 C 262.092 258.874,271.580 257.347,281.215 258.360 " stroke="none" fill="#fbfbfb" fill-rule="evenodd"></path></g></svg>
